# xmcd
#
# Track frame offsets: 
#        150
#        15695
#        32113
#        46109
#        64369
#        76559
#        93017
#        107914
#        117873
#        129793
#        140770
#        156491
#        173951
#        188091
#        203644
#        215636
#        226882
#        241560
#        253846
#        263461
#        276627
#
# Disc length: 3933 seconds
#
# Revision: 0
# Processed by: cddbd v1.5.2PL0 Copyright (c) Steve Scherf et al.
# Submitted via: ExactAudioCopyFreeDBPlugin 1.0
#
DISCID=1e0f5b15
DTITLE=Various Artist - Die Ultimative Chartshow - Flower Power Hits 
DTITLE=CD 2  (2009)
DYEAR=2009
DGENRE=Folk/Rock
TTITLE0=Juliane Werding - Am Tag, Als Conny Kramer Starb
TTITLE1=Marlene Dietrich - Sag Mir Wo Die Blumen Sind
TTITLE2=Simon and Garfunkel - The Sound Of Silence
TTITLE3=Lobo - I'd Love You To Want Me
TTITLE4=Otis Redding - The Dock Of The Bay
TTITLE5=Donovan - Mellow Yellow
TTITLE6=Sonny and Cher - Little Man
TTITLE7=The Beatles - Ain't She Sweat
TTITLE8=The Mamas and The Papas - California Dreamin'
TTITLE9=Dusty Springfield - Son Of A Preacherman
TTITLE10=Esther and Abi Ofarim - Morning Of My Life
TTITLE11=Albert Hammond - It Never Rains In Southern California
TTITLE12=Iron Butterfly - Easy Rider
TTITLE13=The Doobie Brothers - Long Train Running
TTITLE14=Buffalo Springfield - For What It's Worth
TTITLE15=The Young Rascals - Good Lovin'
TTITLE16=Love - Alone Again Or
TTITLE17=The Spencer Davis Group - Keep On Running
TTITLE18=The Troggs - With A Girl Like You
TTITLE19=The Monkees - Daydream Believer
TTITLE20=Tony Christie - My Sweet Lord
EXTD=
EXTT0=
EXTT1=
EXTT2=
EXTT3=
EXTT4=
EXTT5=
EXTT6=
EXTT7=
EXTT8=
EXTT9=
EXTT10=
EXTT11=
EXTT12=
EXTT13=
EXTT14=
EXTT15=
EXTT16=
EXTT17=
EXTT18=
EXTT19=
EXTT20=
PLAYORDER=
